<svg width="54" height="50" viewBox="0 0 54 50" fill="none" xmlns="http://www.w3.org/2000/svg">
<circle cx="34" cy="20" r="20" fill="#FFF0F8"/>
<circle cx="11" cy="3" r="3" fill="#FFF0F8"/>
<path d="M10 44.9997C11.841 44.9997 13.3334 43.5073 13.3334 41.6663C13.3334 39.8254 11.841 38.333 10 38.333C8.15907 38.333 6.66669 39.8254 6.66669 41.6663C6.66669 43.5073 8.15907 44.9997 10 44.9997Z" stroke="#660033" stroke-width="2" stroke-linecap="round" stroke-linejoin="round"/>
<path d="M28.3333 44.9997C30.1743 44.9997 31.6667 43.5073 31.6667 41.6663C31.6667 39.8254 30.1743 38.333 28.3333 38.333C26.4924 38.333 25 39.8254 25 41.6663C25 43.5073 26.4924 44.9997 28.3333 44.9997Z" stroke="#660033" stroke-width="2" stroke-linecap="round" stroke-linejoin="round"/>
<path d="M28.3334 38.3333H10V15H6.66669" stroke="#660033" stroke-width="2" stroke-linecap="round" stroke-linejoin="round"/>
<path d="M10 18.333L33.3333 19.9997L31.6667 31.6663H10" stroke="#660033" stroke-width="2" stroke-linecap="round" stroke-linejoin="round"/>
</svg>
