<svg width="54" height="50" viewBox="0 0 54 50" fill="none" xmlns="http://www.w3.org/2000/svg">
<circle cx="34" cy="20" r="20" fill="#FFF0F8"/>
<circle cx="11" cy="3" r="3" fill="#FFF0F8"/>
<path d="M20 33.3327C21.841 33.3327 23.3334 31.8403 23.3334 29.9993C23.3334 28.1584 21.841 26.666 20 26.666C18.1591 26.666 16.6667 28.1584 16.6667 29.9993C16.6667 31.8403 18.1591 33.3327 20 33.3327Z" stroke="#660033" stroke-width="2" stroke-linecap="round" stroke-linejoin="round"/>
<path d="M36.6667 29.9997C32.2217 37.778 26.6667 41.6663 20 41.6663C13.3333 41.6663 7.77834 37.778 3.33334 29.9997C7.77834 22.2213 13.3333 18.333 20 18.333C26.6667 18.333 32.2217 22.2213 36.6667 29.9997Z" stroke="#660033" stroke-width="2" stroke-linecap="round" stroke-linejoin="round"/>
</svg>
