<svg width="54" height="50" viewBox="0 0 54 50" fill="none" xmlns="http://www.w3.org/2000/svg">
<circle cx="34" cy="20" r="20" fill="#FFF0F8"/>
<circle cx="11" cy="3" r="3" fill="#FFF0F8"/>
<path d="M7.34126 35.8773L14.8913 43.4273C17.9913 46.5273 23.0246 46.5273 26.1413 43.4273L33.4579 36.1106C36.5579 33.0106 36.5579 27.9773 33.4579 24.8606L25.8913 17.3273C24.3079 15.7439 22.1246 14.8939 19.8913 15.0106L11.5579 15.4106C8.22459 15.5606 5.57459 18.2106 5.40793 21.5273L5.00793 29.8606C4.90793 32.1106 5.75793 34.2939 7.34126 35.8773Z" stroke="#660033" stroke-width="2" stroke-linecap="round" stroke-linejoin="round"/>
<path d="M16.2246 30.3773C18.5258 30.3773 20.3913 28.5118 20.3913 26.2106C20.3913 23.9094 18.5258 22.0439 16.2246 22.0439C13.9234 22.0439 12.0579 23.9094 12.0579 26.2106C12.0579 28.5118 13.9234 30.3773 16.2246 30.3773Z" stroke="#660033" stroke-width="2" stroke-linecap="round"/>
<path d="M22.0579 38.7106L28.7246 32.0439" stroke="#660033" stroke-width="2" stroke-miterlimit="10" stroke-linecap="round" stroke-linejoin="round"/>
</svg>
